<svg width="127" height="26" viewBox="0 0 127 26" fill="none" xmlns="http://www.w3.org/2000/svg">
<g clip-path="url(#clip0_6_4)">
<mask id="mask0_6_4" style="mask-type:luminance" maskUnits="userSpaceOnUse" x="0" y="0" width="127" height="26">
<path d="M0 0H127V26H0V0Z" fill="white"/>
</mask>
<g mask="url(#mask0_6_4)">
<path d="M38.9896 4.43529C41.1425 4.38447 43.2277 5.18755 44.7874 6.66824C44.8331 6.70842 44.8697 6.75784 44.8948 6.81322C44.9199 6.8686 44.9328 6.92866 44.9328 6.98941C44.9328 7.05017 44.9199 7.11023 44.8948 7.1656C44.8697 7.22098 44.8331 7.2704 44.7874 7.31059L43.3763 8.84C43.3369 8.88107 43.2892 8.91324 43.2362 8.93434C43.1833 8.95545 43.1265 8.965 43.0696 8.96235C43.0102 8.96122 42.9519 8.9469 42.8988 8.92045C42.8458 8.89399 42.7993 8.85605 42.7628 8.80941C41.741 7.92149 40.4369 7.42301 39.0816 7.40235C38.3525 7.41364 37.633 7.56961 36.965 7.86118C36.307 8.15025 35.7128 8.56605 35.2164 9.08471C34.7247 9.59587 34.339 10.1988 34.0814 10.8588C33.8181 11.5307 33.6929 12.2484 33.7133 12.9694C33.7007 13.681 33.8299 14.3881 34.0931 15.0496C34.3564 15.7112 34.7486 16.3141 35.2471 16.8235C35.7525 17.3455 36.3574 17.7615 37.0263 18.0471C37.6867 18.3249 38.3955 18.4705 39.1123 18.4753C40.4627 18.458 41.7646 17.9711 42.7935 17.0988C42.8778 17.0236 42.9871 16.982 43.1002 16.982C43.2134 16.982 43.3226 17.0236 43.407 17.0988L44.8795 18.6282C44.9638 18.714 45.011 18.8293 45.011 18.9494C45.011 19.0695 44.9638 19.1848 44.8795 19.2706C43.3129 20.7669 41.2201 21.5906 39.051 21.5647C37.8987 21.5955 36.7517 21.3979 35.6766 20.9835C34.6024 20.5693 33.6221 19.9453 32.793 19.1482C31.9661 18.3489 31.3089 17.3919 30.8604 16.3341C30.4115 15.2795 30.1802 14.1456 30.1802 13C30.1802 11.8544 30.4115 10.7205 30.8604 9.66588C31.3124 8.61906 31.9695 7.67273 32.793 6.88235C33.6221 6.08529 34.6024 5.46133 35.6766 5.04706C36.7496 4.62221 37.8966 4.41426 39.051 4.43529H38.9896ZM47.0268 20.7388L54.5118 4.71059C54.5427 4.62998 54.5974 4.56056 54.6685 4.51143C54.7397 4.46231 54.8241 4.43577 54.9106 4.43529H55.156C55.2426 4.43577 55.327 4.46231 55.3981 4.51143C55.4693 4.56056 55.5239 4.62998 55.5548 4.71059L62.9478 20.7388C62.9793 20.8049 62.9933 20.878 62.9884 20.951C62.9835 21.024 62.9599 21.0945 62.9199 21.1559C62.88 21.2172 62.8249 21.2673 62.7599 21.3014C62.695 21.3355 62.6224 21.3524 62.549 21.3506H60.4324C60.2797 21.3573 60.129 21.3143 60.0029 21.2282C59.8706 21.1419 59.7729 21.012 59.7268 20.8612L58.5611 18.2918H51.3828L50.1865 20.8612C50.1361 21.0098 50.0394 21.1384 49.9104 21.2282C49.7877 21.2894 49.6343 21.3506 49.4809 21.3506H47.3949C47.3231 21.3532 47.2517 21.3377 47.1874 21.3057C47.1231 21.2736 47.0679 21.2259 47.0268 21.1671C46.9843 21.1047 46.9592 21.0322 46.9538 20.9571C46.9484 20.8819 46.963 20.8066 46.9961 20.7388H47.0268ZM57.3647 15.6612L55.0027 10.4H54.9106L52.5792 15.6612H57.3647ZM68.2855 4.80235C68.2909 4.74847 68.3073 4.69626 68.3337 4.64892C68.3601 4.60158 68.3959 4.56011 68.4389 4.52706C68.5002 4.46588 68.6229 4.43529 68.7457 4.43529H69.1138C69.1969 4.43323 69.2788 4.45525 69.3495 4.49869C69.4203 4.54212 69.477 4.60511 69.5126 4.68L74.8196 15.9059H74.9116L80.1879 4.68C80.22 4.60249 80.2759 4.53709 80.3475 4.49314C80.4191 4.44919 80.5029 4.42894 80.5867 4.43529H80.9855C81.0775 4.43529 81.2002 4.46588 81.2923 4.52706C81.3678 4.59923 81.4119 4.69809 81.415 4.80235L84.2372 20.8C84.2704 20.8979 84.2669 21.0045 84.2274 21.1001C84.188 21.1956 84.1152 21.2738 84.0225 21.32L83.8077 21.3506H81.6604C81.5502 21.349 81.4433 21.3126 81.3551 21.2466C81.2669 21.1807 81.202 21.0886 81.1696 20.9835L79.7584 11.96H79.6971L75.4638 21.3506C75.4327 21.426 75.3792 21.4901 75.3104 21.5341C75.249 21.5953 75.157 21.5953 75.065 21.5953H74.6355C74.5524 21.5974 74.4705 21.5753 74.3997 21.5319C74.3289 21.4885 74.2723 21.4255 74.2367 21.3506L69.942 11.9294H69.8807L68.4696 20.9529C68.4492 21.0531 68.3959 21.1436 68.3181 21.21C68.2403 21.2765 68.1424 21.3152 68.0401 21.32H65.8928C65.8187 21.3314 65.7429 21.3233 65.6729 21.2965C65.603 21.2697 65.5413 21.225 65.494 21.1671C65.4465 21.1075 65.4159 21.0365 65.4051 20.9612C65.3943 20.886 65.4038 20.8092 65.4326 20.7388L68.2855 4.77177V4.80235ZM88.2251 5.10824C88.2329 4.99193 88.2848 4.88293 88.3703 4.8034C88.4557 4.72386 88.5684 4.67974 88.6853 4.68H94.207C97.0292 4.68 99.2686 6.57647 99.2686 9.08471C99.2686 10.92 97.7348 12.3576 96.6304 12.8776C97.8882 13.2753 99.7287 14.56 99.7287 16.7624C99.7287 19.4235 97.428 21.3506 94.5138 21.3506H88.6853C88.5671 21.3409 88.4572 21.2861 88.3785 21.1976C88.2898 21.1192 88.2348 21.0096 88.2251 20.8918V5.13882V5.10824ZM93.9002 11.6847C94.1758 11.6775 94.447 11.6151 94.6978 11.5012C94.9623 11.3984 95.2025 11.2422 95.4034 11.0424C95.5913 10.8421 95.737 10.6062 95.8319 10.3488C95.9267 10.0913 95.9688 9.81749 95.9555 9.54353C95.9712 9.27278 95.9294 9.00177 95.8328 8.74824C95.7307 8.49616 95.577 8.26806 95.3816 8.07847C95.1862 7.88888 94.9533 7.74196 94.6978 7.64706C94.4433 7.55165 94.1717 7.50998 93.9002 7.52471H91.3234V11.6847H93.9002ZM94.207 18.5365C94.5008 18.5446 94.7931 18.4926 95.0659 18.3835C95.3318 18.2695 95.5718 18.103 95.7715 17.8941C95.981 17.695 96.1479 17.4557 96.2623 17.1906C96.3676 16.9281 96.4197 16.6474 96.4157 16.3647C96.4157 15.1718 95.1886 14.2847 93.9616 14.2847H91.3234V18.5365H94.2377H94.207ZM103.993 5.13882C103.992 5.02226 104.037 4.90996 104.117 4.82474C104.196 4.73952 104.306 4.68777 104.422 4.68H106.631C106.753 4.68 106.87 4.72834 106.956 4.81439C107.043 4.90043 107.091 5.01714 107.091 5.13882V18.4753H113.226C113.345 18.485 113.454 18.5397 113.533 18.6282C113.625 18.6894 113.686 18.8118 113.686 18.9341V20.8918C113.686 21.0141 113.625 21.1365 113.564 21.1976C113.521 21.2451 113.469 21.2832 113.411 21.3095C113.353 21.3358 113.29 21.3498 113.226 21.3506H104.422C104.333 21.3437 104.248 21.3111 104.177 21.2568C104.106 21.2025 104.053 21.1288 104.023 21.0447C104.005 20.9958 103.994 20.9441 103.993 20.8918V5.13882ZM118.257 13.3059L112.766 5.35294C112.733 5.30344 112.711 5.24771 112.701 5.18928C112.691 5.13085 112.694 5.07099 112.708 5.01348C112.723 4.95597 112.749 4.90208 112.785 4.85521C112.822 4.80834 112.867 4.76951 112.92 4.74118L113.165 4.68H115.619C115.693 4.68345 115.765 4.70472 115.829 4.742C115.894 4.77929 115.948 4.83148 115.987 4.89412L119.852 10.3694L123.687 4.86353C123.733 4.80222 123.793 4.75331 123.863 4.72126C123.933 4.68921 124.009 4.67502 124.086 4.68H126.54C126.619 4.67837 126.698 4.69723 126.767 4.73475C126.837 4.77226 126.896 4.82717 126.939 4.89412C126.989 4.96593 127.016 5.05132 127.016 5.13882C127.016 5.22632 126.989 5.31172 126.939 5.38353L121.356 13.3059V20.8918C121.354 21.0054 121.31 21.1143 121.233 21.1976C121.154 21.2861 121.044 21.3409 120.926 21.3506H118.687C118.569 21.3409 118.459 21.2861 118.38 21.1976C118.291 21.1192 118.236 21.0096 118.227 20.8918L118.257 13.3059Z" fill="white"/>
<path d="M26.2283 12.9082C26.2122 11.197 25.8583 9.5057 25.1867 7.93087C24.5151 6.35604 23.539 4.92854 22.3141 3.72988C21.0892 2.53123 19.6395 1.58489 18.0478 0.944918C16.4561 0.304941 14.7536 -0.0161432 13.0374 7.34377e-09C11.3213 0.0040122 9.62278 0.345033 8.03882 1.00359C6.45486 1.66215 5.0165 2.62535 3.80586 3.83819C2.59522 5.05103 1.63601 6.48977 0.983004 8.07225C0.329993 9.65474 -0.00403144 11.35 1.76043e-06 13.0612C0.0120297 14.775 0.362995 16.4696 1.0328 18.048C1.7026 19.6263 2.67809 21.0574 3.90338 22.2593C5.12868 23.4612 6.57972 24.4103 8.17341 25.0521C9.76709 25.694 11.4721 26.0161 13.1908 26C14.907 25.996 16.6055 25.655 18.1894 24.9964C19.7734 24.3379 21.2118 23.3747 22.4224 22.1618C23.633 20.949 24.5922 19.5102 25.2453 17.9277C25.8983 16.3453 26.2323 14.65 26.2283 12.9388V12.9082Z" fill="#FFC929"/>
<path d="M15.3382 25.8471C14.6088 25.9729 13.8697 26.0343 13.1295 26.0306C12.7307 26.0306 12.3626 26.0306 11.9944 25.9694C12.2399 25.5412 3.71184 18.8424 3.52778 19.0871C3.31305 16.9153 1.74855 13.9482 1.99396 11.6847C2.23937 8.25882 5.85918 6.60706 8.89614 7.21882C9.51587 7.33481 10.1024 7.58545 10.614 7.95294V7.98353C9.93913 8.56471 13.4362 13.1835 13.6203 12.9694C13.9884 13.9788 14.2645 14.8965 14.5406 15.5694C15.8903 19.3012 16.6879 22.7576 15.3075 25.8471H15.3382Z" fill="#EF502E"/>
<path d="M8.31329 12.7859C8.30396 12.7913 8.29338 12.7941 8.28261 12.7941C8.27184 12.7941 8.26126 12.7913 8.25193 12.7859C7.76936 12.6677 7.26656 12.6573 6.77947 12.7553C6.25303 12.865 5.75942 13.0954 5.33768 13.4282C5.32836 13.4336 5.31778 13.4364 5.30701 13.4364C5.29624 13.4364 5.28566 13.4336 5.27633 13.4282C5.04448 13.037 4.90789 12.597 4.87754 12.1435C4.83953 11.8964 4.85258 11.6441 4.91588 11.4021C4.97918 11.1601 5.0914 10.9336 5.24565 10.7365C5.39768 10.5488 5.58532 10.3929 5.79783 10.2776C6.01413 10.1496 6.25409 10.0664 6.50338 10.0329C7.42367 9.97176 8.22126 10.5224 8.40532 11.7765C8.44562 12.1157 8.41428 12.4595 8.31329 12.7859Z" fill="white"/>
<path d="M5.88986 12.3882C6.11993 12.1839 6.39778 12.0404 6.69792 11.9709C6.99806 11.9014 7.3109 11.9082 7.60773 11.9906C7.59577 11.8544 7.56479 11.7206 7.5157 11.5929C7.44602 11.3951 7.30345 11.231 7.11691 11.1341C6.92704 11.0387 6.70844 11.0169 6.50338 11.0729C6.37006 11.1114 6.24645 11.1777 6.14069 11.2673C6.03493 11.357 5.94944 11.4679 5.88986 11.5929C5.83211 11.7176 5.8022 11.8533 5.8022 11.9906C5.8022 12.1279 5.83211 12.2636 5.88986 12.3882ZM22.363 7.73882L14.4792 11.8071C14.3872 11.8071 14.2952 11.8988 14.2645 11.96C14.1248 12.3134 13.9163 12.6357 13.651 12.9082C13.1573 13.4103 12.5094 13.7334 11.8104 13.8259C10.522 14.0706 9.32561 13.3976 9.38696 13.1529C9.54842 12.6916 9.59062 12.1972 9.50966 11.7153C9.41764 10.6141 8.86546 10.2471 9.11087 9.60471C9.46806 8.93093 9.98386 8.35363 10.614 7.92235C12.2652 6.63662 13.9856 5.44189 15.7676 4.34353C17.7002 3.24235 19.6329 3.12 21.6575 5.47529C22.0911 5.96726 22.4245 6.53866 22.6391 7.15765V7.49412C22.5826 7.60842 22.4835 7.69621 22.363 7.73882Z" fill="#353535"/>
<path d="M12.9761 22.3294C12.9825 22.7088 12.9517 23.0878 12.8841 23.4612C12.8505 23.6362 12.8096 23.8097 12.7614 23.9812C12.715 24.166 12.6638 24.3496 12.608 24.5318C12.4511 25.02 12.2456 25.4914 11.9944 25.9388C10.1171 25.7756 8.29687 25.2124 6.65677 24.2871C5.0069 23.3799 3.57325 22.1278 2.45411 20.6165L3.00628 19.76C3.16155 19.5124 3.33591 19.2771 3.52778 19.0565C3.73306 18.8134 3.95885 18.5882 4.20266 18.3835L4.35604 18.2612L4.57078 18.0776L4.81619 17.9553L5.00024 17.8329L5.21498 17.7106L5.42971 17.5882C5.51991 17.5524 5.61209 17.5218 5.7058 17.4965C6.04205 17.3592 6.39155 17.2567 6.7488 17.1906H6.99421L7.36232 17.1294H7.66909C8.47881 17.1278 9.27752 17.3164 10.0005 17.68C10.3122 17.8495 10.6097 18.0439 10.8901 18.2612L11.1662 18.4753L11.4116 18.72L11.7797 19.1176L12.1172 19.5765C12.4655 20.0866 12.7152 20.6572 12.8534 21.2588C12.9454 21.5953 12.9761 21.9624 12.9761 22.3294Z" fill="#CC2525"/>
</g>
</g>
<defs>
<clipPath id="clip0_6_4">
<rect width="127" height="26" fill="white"/>
</clipPath>
</defs>
</svg>
